<?xml version="1.0" encoding="utf-8"?>
<!-- Svg Vector Icons : http://www.onlinewebfonts.com/icon -->
<!DOCTYPE svg PUBLIC "-//W3C//DTD SVG 1.1//EN" "http://www.w3.org/Graphics/SVG/1.1/DTD/svg11.dtd">
<svg version="1.1" xmlns="http://www.w3.org/2000/svg" xmlns:xlink="http://www.w3.org/1999/xlink" x="0px" y="0px" viewBox="0 0 1000 1000" enable-background="new 0 0 1000 1000" xml:space="preserve">
<metadata> Svg Vector Icons : http://www.onlinewebfonts.com/icon </metadata>
<g><g><path d="M535,80c-16.8,0-31.2,6-43.2,18c-12,12-18,26.4-18,43.2V500h-17.5V211.3c0-16.8-6-31.2-18-43.2c-12-12-26.4-18-43.2-18c-16.8,0-31.2,6-43.2,18c-12,12-18,26.4-18,43.2V640l-84.2-112.1c-13.9-18.6-32.4-27.9-55.8-27.9c-19.3,0-35.8,6.8-49.5,20.5c-13.7,13.7-20.5,30.2-20.5,49.5c0,15.7,4.7,29.7,14.2,42.1l210,280c13.9,18.6,32.4,27.9,55.8,27.9H780c12.4,0,23.5-4,33.4-12c9.8-8,16-18.2,18.6-30.6l41.6-221.5c1.8-11.7,2.7-22.4,2.7-32.3V351.3c0-16.8-6-31.2-18-43.2c-12-12-26.4-18-43.2-18s-31.2,6-43.2,18c-12,12-18,26.4-18,43.2V500h-17.5V211.3c0-16.8-6-31.2-18-43.2s-26.4-18-43.2-18s-31.2,6-43.2,18c-12,12-18,26.4-18,43.2V500h-17.5V141.3c0-16.8-6-31.2-18-43.2C566.2,86,551.8,80,535,80L535,80z M535,10c24.8,0,47.7,6.5,68.6,19.4c21,12.9,37.1,30.5,48.4,52.8c6.9-1.5,14.6-2.2,23-2.2c36.1,0,67,12.9,92.7,38.6c25.7,25.7,38.6,56.6,38.6,92.7v9.3c38.3-2.2,71.2,9.5,98.7,35c27.5,25.5,41.3,57.4,41.3,95.7v272.3c0,14.6-1.5,29.7-4.4,45.4l-41.6,220.9c-5.1,28.8-19,52.7-41.8,71.6c-22.8,19-48.9,28.4-78.5,28.4H403.8c-21.9,0-42.7-5-62.6-15c-19.9-10-36.4-23.6-49.5-40.7l-210-280C63,629.4,53.7,601.4,53.7,570c0-38.6,13.7-71.6,41-99s60.3-41,99-41c28.4,0,51.8,6.2,70,18.6V211.3c0-36.1,12.9-67,38.6-92.7C328,92.9,358.9,80,395,80c8.4,0,16,0.7,23,2.2c11.3-22.2,27.4-39.8,48.4-52.8S510.2,10,535,10L535,10z"/></g></g>
</svg>