<?xml version="1.0" encoding="utf-8"?>
<!-- Svg Vector Icons : http://www.onlinewebfonts.com/icon -->
<!DOCTYPE svg PUBLIC "-//W3C//DTD SVG 1.1//EN" "http://www.w3.org/Graphics/SVG/1.1/DTD/svg11.dtd">
<svg version="1.1" xmlns="http://www.w3.org/2000/svg" xmlns:xlink="http://www.w3.org/1999/xlink" x="0px" y="0px" viewBox="0 0 1000 1000" enable-background="new 0 0 1000 1000" xml:space="preserve">
<metadata> Svg Vector Icons : http://www.onlinewebfonts.com/icon </metadata>
<g><g><path d="M596.8,920H500c-59.4,0-100.6-25.7-123.6-77.1c-8.4-17.9-12.6-36.5-12.6-55.8v-2.7c-22.6-10.9-40.6-27.1-53.9-48.4c-13.3-21.3-20-44.6-20-69.7c0-13.9,0.9-22.6,2.7-26.3H150c-38.6,0-71.6-13.7-99-41c-27.3-27.3-41-60.3-41-99s13.7-71.6,41-99c27.3-27.3,60.3-41,99-41h61.8l-24.1-9.3c-27-10.2-48.8-27.3-65.4-51.1S97.5,249.2,97.5,220c0-38.6,13.7-71.6,41-99c27.3-27.3,60.3-41,99-41c16.8,0,33.4,3.1,49.8,9.3L630.7,220H850c38.6,0,71.6,13.7,99,41c27.3,27.3,41,60.3,41,99v365.3c0,32.1-9.8,60.8-29.5,86.1c-19.7,25.3-45.2,41.8-76.6,49.5l-185.4,46.5C665,915.8,631.1,920,596.8,920L596.8,920z M570,531.2L485.2,570l-89.1,40.5c-10.9,5.1-19.7,12.7-26.3,22.7s-9.8,21.1-9.8,33.1c0,16.8,6,31.2,18,43.2c12,12,26.4,18,43.2,18c9.5,0,17.9-1.8,25.2-5.5l184.8-84.2c-17.9-3.6-32.5-12.8-44-27.3s-17.2-31-17.2-49.2V531.2L570,531.2z M745,701.3c0-16.8-6-31.2-18-43.2c-12-12-26.4-18-43.2-18c-9.5,0-17.9,1.8-25.2,5.5L500,717.7c-10.2,4.7-17,7.8-20.2,9.3c-3.3,1.5-8.8,4.6-16.7,9.3c-7.8,4.7-13.2,9-16.1,12.9s-5.8,9.1-8.8,15.9s-4.4,14.1-4.4,22.1c0,18.2,5.7,33.2,17.2,44.8c11.5,11.7,26.3,17.5,44.6,17.5c7.3,0,14.2-1.6,20.8-4.9L708.9,757c10.9-5.1,19.7-12.7,26.3-22.7S745,713.3,745,701.3z M618.1,290L262.7,154.4c-8.7-2.9-17.1-4.4-25.2-4.4c-19.3,0-35.8,6.8-49.5,20.5c-13.7,13.7-20.5,30.2-20.5,49.5c0,14.6,4.1,27.9,12.3,39.9s19,20.6,32.5,25.7L500,395v35H150c-19.3,0-35.8,6.8-49.5,20.5C86.8,464.2,80,480.7,80,500c0,19.3,6.8,35.8,20.5,49.5c13.7,13.7,30.2,20.5,49.5,20.5h292.6L570,512V403.8c0-23,8.4-42.3,25.2-58l60.7-55.8L618.1,290L618.1,290z M596.8,850c29.9,0,58.2-3.5,84.8-10.4L867,793.1c15.7-4,28.4-12.3,38.3-24.9c9.8-12.6,14.8-26.9,14.8-42.9V360c0-19.3-6.8-35.8-20.5-49.5C885.8,296.8,869.3,290,850,290H681.6l-74.4,68.9c-13.1,12-19.7,27-19.7,44.8v161.9c0,16.8,6,30.8,18,42.1c12,11.3,26.4,17,43.2,17c16.8,0,31.2-6.4,43.2-19.1c12-12.8,18-27.5,18-44.3V447.5h17.5v113.7c0,25.5-10.4,46.3-31.2,62.3c19,2.9,34.7,11.8,47.3,26.5c12.6,14.8,18.9,31.8,18.9,51.1c0,15.3-4.2,29.5-12.6,42.7s-19.5,22.8-33.4,29L547,850H596.8L596.8,850z"/></g></g>
</svg>